<?xml version="1.0" standalone="no"?>
<!DOCTYPE svg PUBLIC "-//W3C//DTD SVG 20010904//EN"
 "http://www.w3.org/TR/2001/REC-SVG-20010904/DTD/svg10.dtd">
<svg version="1.0" xmlns="http://www.w3.org/2000/svg"
 width="512.000000pt" height="512.000000pt" viewBox="0 0 512.000000 512.000000"
 preserveAspectRatio="xMidYMid meet">
<metadata>
Created by potrace 1.14, written by Peter Selinger 2001-2017
</metadata>
<g transform="translate(0.000000,512.000000) scale(0.100000,-0.100000)"
fill="#000000" stroke="none">
<path d="M1260 4745 c-40 -67 -228 -392 -298 -515 -10 -19 -43 -75 -72 -125
-29 -49 -62 -106 -72 -125 -47 -82 -596 -1033 -724 -1254 l-93 -160 16 -30 c9
-17 99 -175 201 -351 208 -359 419 -726 494 -858 28 -48 54 -87 59 -87 5 0 12
8 16 17 3 10 14 29 23 43 10 14 28 45 42 70 14 25 89 155 168 290 79 135 151
259 160 275 9 17 107 185 217 375 110 190 307 530 437 755 131 226 253 435
271 465 18 30 42 71 52 90 11 19 46 80 78 135 32 55 121 208 197 340 77 132
144 247 149 255 10 17 201 346 231 400 11 19 25 41 30 48 6 7 8 15 5 19 -4 3
-351 6 -773 7 l-766 1 -48 -80z"/>
<path d="M3277 4820 c-19 -3 -35 -18 -51 -45 -42 -75 -508 -879 -561 -970 -73
-125 -317 -543 -407 -700 -41 -71 -104 -180 -140 -241 -36 -61 -68 -117 -71
-125 -4 -8 -15 -27 -26 -44 -10 -16 -102 -176 -206 -355 -103 -179 -198 -342
-211 -362 -13 -21 -24 -40 -24 -43 0 -3 -11 -22 -23 -43 -26 -40 -556 -952
-575 -989 -10 -18 -6 -32 33 -98 25 -41 45 -78 45 -82 0 -4 6 -14 14 -22 7 -9
27 -41 43 -71 53 -98 75 -135 83 -144 10 -10 -19 -57 333 549 162 281 384 663
492 850 109 187 205 354 215 370 9 17 68 118 130 225 62 107 121 209 130 225
10 17 41 71 70 120 29 50 61 104 70 120 39 68 281 485 400 690 70 121 138 238
150 260 12 22 26 45 30 50 4 6 19 30 32 55 14 25 80 140 148 255 67 116 136
235 153 265 17 30 45 79 64 108 18 29 33 55 33 57 0 3 18 35 39 70 l40 65 -37
1 c-183 3 -393 3 -415 -1z"/>
<path d="M3966 4542 c-28 -48 -119 -206 -204 -352 -85 -146 -165 -283 -177
-305 -13 -22 -56 -96 -96 -165 -39 -69 -95 -165 -124 -215 -29 -49 -78 -135
-110 -190 -32 -55 -66 -115 -77 -133 -10 -18 -25 -43 -32 -55 -8 -12 -62 -104
-120 -204 l-105 -183 1094 0 c1038 0 1094 1 1088 18 -4 9 -20 40 -36 67 -38
65 -249 429 -274 475 -11 19 -62 107 -113 195 -51 88 -150 259 -220 380 -69
121 -189 328 -265 460 -76 132 -146 252 -154 267 -9 16 -18 28 -21 28 -3 0
-27 -40 -54 -88z"/>
<path d="M3003 2392 c-40 -2 -73 -4 -73 -6 0 -4 129 -233 215 -381 49 -86 538
-946 585 -1030 12 -22 57 -101 100 -175 43 -74 88 -153 100 -175 82 -148 81
-147 95 -128 6 10 49 83 94 163 46 80 87 150 91 155 4 6 22 37 40 70 48 86 56
101 172 300 192 331 668 1156 686 1190 10 20 7 20 -1011 20 -562 0 -1055 -1
-1094 -3z"/>
<path d="M2550 2099 c-40 -68 -79 -134 -86 -146 -7 -12 -23 -38 -34 -58 -27
-49 -168 -292 -191 -330 -10 -16 -33 -57 -52 -90 -65 -114 -74 -130 -107 -185
-18 -30 -40 -68 -49 -85 -9 -16 -35 -61 -58 -100 -60 -103 -316 -543 -345
-595 -14 -25 -46 -80 -72 -123 -25 -43 -46 -79 -46 -81 0 -2 495 -3 1100 -3
605 0 1100 2 1100 6 0 3 -23 44 -50 90 -28 46 -50 85 -50 87 0 1 -61 110 -136
241 -75 131 -150 263 -166 293 -17 30 -34 60 -38 65 -4 6 -20 33 -35 60 -15
28 -102 181 -193 340 -91 160 -174 306 -185 325 -44 79 -201 357 -217 384
l-18 29 -72 -124z"/>
</g>
</svg>
